<svg width="256" height="256" viewBox="0 0 128 128" xmlns="http://www.w3.org/2000/svg">
  <path d="M64 10 C92 10 112 32 112 58 C112 84 92 106 64 106 C56 106 52 96 46 106 C40 96 34 106 28 96 C22 86 20 74 20 58 C20 32 40 10 64 10 Z" fill="url(#ghostGrad)"/>
  <ellipse cx="26" cy="70" rx="10" ry="14" fill="url(#ghostGrad)"/>
  <ellipse cx="102" cy="70" rx="10" ry="14" fill="url(#ghostGrad)"/>
  <ellipse cx="52" cy="58" rx="7" ry="9" fill="#3B0764"/>
  <ellipse cx="76" cy="58" rx="7" ry="9" fill="#3B0764"/>
  <ellipse cx="64" cy="76" rx="8" ry="5" fill="#3B0764"/>
  <circle cx="50" cy="54" r="2.5" fill="white"/>
  <circle cx="74" cy="54" r="2.5" fill="white"/>
  <ellipse cx="64" cy="40" rx="30" ry="18" fill="white" opacity="0.25"/>
  <defs>
    <radialGradient id="ghostGrad" cx="50%" cy="30%" r="70%">
      <stop offset="0%" stop-color="#F5E9FF"/>
      <stop offset="50%" stop-color="#C084FC"/>
      <stop offset="100%" stop-color="#6D28D9"/>
    </radialGradient>
  </defs>
</svg>
